# xmcd CD database file
# Copyright (C) 1996 Ti Kan
#
# Track frame offsets:
#  150
#  13450
#  24615
#  38027
#  49087
#  59687
#  71932
#  84085
#  96192
#  107185
#  118717
#  132697
#  146725
#  157317
#  167935
#  182015
#  195650
#  209840
#  223990
#  238052
#  250112
#  263260
#
# Disc length: 3666 seconds
#
# Revision: 2
# Processed by: cddbd v1.4PL0 Copyright (c) Steve Scherf et al.
# Submitted via: Gronk 1.4
#
DISCID=5d0e5016
DTITLE=Amos Milburn - Blues, Barrelhouse and Boogie Woogie [CD1]
DYEAR=1900
DGENRE=blues
TTITLE0=After Midnite
TTITLE1=My Baby's Boogying
TTITLE2=Down The Road Apiece
TTITLE3=Amos' Blues
TTITLE4=Amos' Boogie
TTITLE5=Operation Blues
TTITLE6=Cinch Blues
TTITLE7=Everything I Do Is Wrong
TTITLE8=Blues At Sundown
TTITLE9=Money Hustilin' Woman
TTITLE10=Sad And Blue
TTITLE11=Mean Woman
TTITLE12=Aladdin Boogie
TTITLE13=Nickel Plated Baby
TTITLE14=Real Gone
TTITLE15=Rainy Weather Blues
TTITLE16=Train Whistle Blues
TTITLE17=Train Time Blues
TTITLE18=Bye Bye Boogie
TTITLE19=Pot Luck Boogie
TTITLE20=It's A Married Woman
TTITLE21=My Tortured Mind
EXTD=Capitol Blues Collection CDP 7248 8 36879 23\n\n[Submitted 5/30/97]\n
EXTD=J. Rockwall McCoy\n[Jmccoy@efn.org]
EXTT0=
EXTT1=
EXTT2=
EXTT3=
EXTT4=
EXTT5=
EXTT6=
EXTT7=
EXTT8=
EXTT9=
EXTT10=
EXTT11=
EXTT12=
EXTT13=
EXTT14=
EXTT15=
EXTT16=
EXTT17=
EXTT18=
EXTT19=
EXTT20=
EXTT21=
PLAYORDER=
